<?xml version="1.0" encoding="UTF-8" standalone="no"?>
<!-- Created with Inkscape (http://www.inkscape.org/) -->
<svg xmlns:svg="http://www.w3.org/2000/svg" xmlns="http://www.w3.org/2000/svg" xmlns:inkscape="http://www.inkscape.org/namespaces/inkscape" xmlns:sodipodi="http://sodipodi.sourceforge.net/DTD/sodipodi-0.dtd" xmlns:ns1="http://sozi.baierouge.fr" xmlns:xlink="http://www.w3.org/1999/xlink" xmlns:dc="http://purl.org/dc/elements/1.1/" xmlns:cc="http://web.resource.org/cc/" version="1.0" width="1213.6083" height="659.41736" id="svg3841" inkscape:version="0.91 r13725" xmlns:rdf="http://www.w3.org/1999/02/22-rdf-syntax-ns#">
  <defs id="defs3843"/>
  <g transform="translate(182.11221,-249.3249)" id="layer1">
    <path d="M -112.06504,906.91763 L -128.20149,906.93361 L -128.87724,902.42739 C -129.4341,898.71396 -130.19865,897.48244 -133.22292,895.42739 C -135.40077,893.9475 -138.3231,892.92921 -140.41071,892.92279 C -145.05978,892.90848 -153.30162,890.35848 -155.6927,888.19459 C -157.90136,886.19577 -162.41777,879.5709 -164.05144,875.93361 C -164.66901,874.55861 -165.67704,870.75415 -166.29151,867.47926 C -167.74433,859.73617 -169.13315,858.43361 -175.93622,858.43361 C -180.93432,858.43361 -181.41828,858.23001 -181.93025,855.91197 C -182.46276,853.50091 -181.73324,805.06203 -180.94411,790.43361 C -182.12954,771.12374 -179.77847,747.63345 -179.49886,732.84392 C -180.81351,679.99123 -179.00536,643.50384 -178.99178,580.03199 C -179.06824,457.11889 -179.26912,337.14698 -179.42812,319.42639 L -179.54483,306.41917 L -176.73671,303.8052 C -175.19224,302.36752 -172.80358,300.92782 -171.42858,300.60585 C -167.26302,299.63047 -165.5658,297.67178 -164.34727,292.43361 C -162.34666,283.83343 -160.43178,279.22541 -156.97998,274.70472 C -153.16708,269.71112 -148.37811,267.32491 -140.41997,266.45332 C -137.39023,266.1215 -134.36225,265.51065 -133.69111,265.09586 C -133.01997,264.68108 -132.11912,261.89762 -131.68922,258.9104 L -130.90758,253.4791 L 7.5819283,253.32339 C 83.751148,253.23775 160.02142,252.89177 177.07142,252.55454 C 194.12142,252.21732 240.24642,251.721 279.57142,251.45162 C 318.89642,251.18224 388.19642,250.68681 433.57142,250.35066 C 478.94642,250.01452 620.36624,249.64621 747.83768,249.5322 L 979.60392,249.3249 L 981.94492,254.43816 C 984.18482,259.33078 984.52092,259.60406 989.73482,260.77088 C 997.23972,262.45039 1006.9386,267.2064 1010.8939,271.14653 C 1013.9956,274.2364 1018.5714,283.46544 1018.5714,286.63158 C 1018.5714,287.41878 1019.5185,290.26441 1020.676,292.95521 C 1022.3612,296.87252 1023.4697,298.07498 1026.2381,298.98861 C 1028.1859,299.63147 1030.0569,301.08038 1030.5233,302.30723 C 1031.1045,303.83573 1031.0888,464.65748 1030.505,490.93361 C 1030.4866,491.75861 1030.4858,503.45861 1030.503,516.93361 C 1030.5203,530.40861 1030.5033,591.60861 1030.4652,652.93361 C 1030.4272,714.25861 1030.6132,767.13361 1030.8786,770.43361 C 1031.4062,776.99454 1031.7106,831.82575 1031.3172,849.43361 C 1031.182,855.48361 1030.7451,860.58989 1030.3462,860.78089 C 1029.9474,860.97189 1027.4724,861.67266 1024.8462,862.33815 C 1019.6752,863.64854 1019.4666,863.99228 1016.5043,876.08935 C 1013.9126,886.67314 1008.4792,891.41351 996.55342,893.49548 C 983.78582,895.72442 980.73522,897.75186 979.16282,905.05363 C 978.37182,908.72635 974.58812,909.14385 948.08792,908.48243 C 899.05582,907.25863 862.46792,906.83426 811.57142,906.899 C 726.04173,907.0078 615.53238,907.83971 614.65594,908.38137 C 372.62011,907.32096 130.13125,907.03407 -112.06504,906.91763 z M 666.57142,901.38847 C 739.69718,900.59613 919.26482,900.67724 949.65162,901.51634 L 973.23192,902.16747 L 974.48212,899.14932 C 976.96712,893.14992 982.72832,889.74134 992.46652,888.50898 C 1002.9821,887.17823 1008.9749,882.2945 1010.1315,874.11323 C 1010.4953,871.53944 1011.5681,867.63361 1012.5154,865.43361 C 1014.1507,861.63591 1019.8195,855.68455 1022.7245,854.71565 C 1023.8371,854.34457 1024.0388,843.49433 1023.8841,792.35001 C 1023.355,617.43242 1023.4763,336.44862 1024.0871,322.19907 L 1024.7829,305.96454 L 1022.275,305.01103 C 1017.583,303.22713 1013.9125,298.56474 1012.3035,292.34505 C 1009.9438,283.22298 1009.1912,281.82988 1003.438,275.93361 C 999.07902,271.4663 996.93552,270.10503 992.02192,268.68361 C 988.69472,267.72111 985.18962,266.93361 984.23292,266.93361 C 981.84442,266.93361 974.57142,259.54488 974.57142,257.11845 C 974.57142,255.33815 973.86662,255.14537 967.32142,255.13527 C 937.96472,255.09 827.54612,255.11307 684.07142,255.19445 C 591.12142,255.24717 495.04642,255.27839 470.57142,255.26382 C 446.09642,255.24925 421.79642,255.30322 416.57142,255.38374 C 411.34642,255.46426 376.47142,255.85096 339.07142,256.24307 C 301.67142,256.63517 264.54642,257.20463 256.57142,257.50852 C 248.59642,257.8124 210.79642,258.2521 172.57142,258.48563 C 134.34643,258.71915 98.072078,259.13296 91.961758,259.40522 C 85.851448,259.67747 47.601449,259.85494 6.9617583,259.79958 C -95.129336,259.66054 -123.38398,259.78801 -124.36136,260.39207 C -124.82363,260.67777 -125.48049,262.37899 -125.82104,264.17256 C -126.60655,268.30959 -130.98854,271.3273 -138.62169,272.98788 C -150.1137,275.48795 -155.32658,280.8794 -156.93993,291.93361 C -157.30115,294.40861 -157.79976,297.17564 -158.04796,298.08256 C -158.71144,300.50702 -163.4036,304.89625 -166.88976,306.35352 C -172.81342,308.82972 -172.75164,308.44779 -171.79569,336.68013 C -171.31609,350.84455 -171.24847,364.90861 -171.64543,367.93361 C -172.04239,370.95861 -172.34274,389.40861 -172.31287,408.93361 C -172.22837,464.17993 -173.57012,761.83165 -173.92892,767.43361 C -174.10505,770.18361 -174.51872,790.49524 -174.84819,812.57057 L -175.44722,852.70753 L -172.15344,853.32545 C -170.34187,853.6653 -167.81605,854.67434 -166.54053,855.56775 C -163.49206,857.70298 -158.43659,868.4958 -158.40617,872.93361 C -158.38892,875.45025 -157.47483,877.44013 -155.15275,880.01604 C -151.01011,884.6115 -149.49551,885.33025 -140.50244,886.96827 C -131.4242,888.6218 -125.39337,892.66328 -124.06099,897.98627 L -123.19341,901.45238 L -98.060987,901.22541 C -84.238166,901.10057 -51.553576,900.80627 -25.428572,900.5714 C 55.036159,899.84799 82.793318,899.85212 148.07143,900.5972 C 182.72142,900.99269 294.4761,901.42235 396.41515,901.552 C 498.3542,901.68166 582.0005,902.02935 582.29581,902.32467 C 582.59112,902.61998 588.96144,902.66789 596.45208,902.43113 C 603.94272,902.19437 635.49642,901.72518 666.57142,901.38847 z M 435.20192,893.23027 C 434.82854,892.85782 94.735178,891.4735 52.571429,891.6728 C 29.746428,891.78069 -17.630622,892.17251 -52.710896,892.54352 L -116.49323,893.21808 L -119.97813,889.14676 C -124.70873,883.62011 -128.58184,881.4548 -137.42858,879.39086 C -146.87331,877.1874 -151.12527,874.19817 -151.97473,869.16455 C -152.32103,867.11253 -153.21075,864.07685 -153.95188,862.41859 C -154.69302,860.76034 -155.74832,858.22282 -156.29701,856.77968 C -156.84569,855.33653 -159.23725,852.85274 -161.6116,851.26015 C -165.76376,848.47507 -165.95598,848.11767 -166.64636,841.89906 C -167.32874,835.75246 -167.05993,803.40697 -165.84051,744.93361 C -164.85036,697.45398 -164.26248,544.3491 -164.56765,413.43361 C -164.5997,399.68361 -164.28549,371.84347 -163.8694,351.56663 L -163.11288,314.69965 L -159.91699,313.36432 C -155.63079,311.57343 -153.41316,307.89917 -152.43294,300.96445 C -150.87836,289.96633 -145.64555,284.22375 -134.63302,281.43052 C -125.3929,279.08685 -123.99505,278.28624 -121.5512,273.93799 C -120.37835,271.85119 -118.85846,269.92982 -118.17367,269.66826 C -116.6996,269.10526 -115.31335,269.09053 -0.92857174,268.42276 C 165.64855,267.4503 290.92816,266.34198 347.07142,265.34409 C 365.22142,265.02149 425.97142,264.55225 482.07142,264.30135 C 538.17142,264.05044 649.09642,263.53858 728.57142,263.1639 C 932.34592,262.2032 964.67872,262.27008 968.30012,263.65975 C 969.08362,263.96039 970.12272,265.25333 970.60922,266.53293 C 971.51342,268.91132 978.46812,273.93361 980.85742,273.93361 C 981.58652,273.93361 984.97092,274.87506 988.37822,276.02573 C 996.29502,278.69929 1000.3638,283.30082 1004.7902,294.58662 C 1006.8438,299.82256 1009.4744,304.44621 1011.8214,306.94506 C 1014.6782,309.98667 1015.6015,311.83038 1015.6977,314.68563 C 1015.7671,316.74702 1015.9223,418.55861 1016.0424,540.93361 C 1016.1626,663.30861 1016.6327,773.10861 1017.0872,784.93361 C 1017.7399,801.91644 1018.0618,838.53761 1017.6418,848.02309 C 1017.6031,848.89731 1016.4374,850.12928 1015.0513,850.7608 C 1013.6653,851.39233 1012.0603,853.15206 1011.4847,854.67132 C 1010.9091,856.19058 1009.6167,858.33361 1008.6128,859.43361 C 1007.6088,860.53361 1006.4886,862.84758 1006.1236,864.57577 C 1005.0588,869.61654 999.95322,876.80114 996.33832,878.34577 C 994.54152,879.11351 989.92142,880.28532 986.07142,880.94979 C 978.08592,882.328 975.30692,883.74835 971.07142,888.61643 L 968.07142,892.06447 L 854.07142,892.56183 C 732.01797,893.09433 435.53994,893.56745 435.20192,893.23027 z M 784.27902,839.82408 C 789.07812,838.98835 792.42972,837.53867 797.86092,833.94951 C 807.42952,827.62612 812.73152,821.91183 816.89652,813.43361 C 825.06042,796.81548 826.28712,775.75468 821.03202,742.43361 C 817.53792,720.27837 816.45322,692.69095 818.51062,678.30356 C 819.07132,674.38203 819.99282,663.13203 820.55822,653.30356 C 821.12362,643.47509 822.48512,628.90861 823.58372,620.93361 C 824.68232,612.95861 826.03882,602.83361 826.59812,598.43361 C 827.15742,594.03361 828.32992,587.50861 829.20372,583.93361 C 830.07752,580.35861 830.98432,576.37753 831.21902,575.08677 C 831.45362,573.79601 832.93612,568.84601 834.51332,564.08677 C 836.09062,559.32753 838.81152,550.48361 840.55982,544.43361 C 842.30822,538.38361 845.01062,529.60861 846.56532,524.93361 C 848.11992,520.25861 850.38392,511.13128 851.59632,504.65066 C 853.50202,494.46394 853.73082,490.60308 853.28482,476.15066 C 852.82572,461.277 852.38362,457.94497 849.27532,445.93361 C 847.35382,438.50861 844.38602,429.05861 842.68002,424.93361 C 840.97402,420.80861 839.57672,417.32111 839.57482,417.18361 C 839.57292,417.04611 838.97302,416.93361 838.24162,416.93361 C 836.36962,416.93361 834.77092,394.91036 835.12002,373.93361 C 835.38012,358.30946 835.24942,356.97843 832.65812,348.85854 C 829.66282,339.47299 825.39922,332.11845 815.78242,319.74914 C 808.49872,310.38066 806.82972,308.96297 800.15482,306.47414 C 795.80842,304.85356 794.64852,304.79022 790.15482,305.92805 C 772.83004,310.31474 766.84293,317.69584 767.82361,333.45862 C 768.06228,337.29486 768.52281,341.33361 768.84702,342.43361 C 769.17122,343.53361 770.13697,346.68361 770.99313,349.43361 C 771.84928,352.18361 772.55464,356.09455 772.5606,358.12459 C 772.56655,360.15463 772.96077,362.05621 773.43664,362.35031 C 773.91252,362.64441 774.56582,364.51162 774.88842,366.49965 C 775.21102,368.48768 776.24392,372.12777 777.18382,374.58873 C 778.77832,378.76392 779.45042,379.32333 787.23202,382.95211 C 795.54472,386.82855 797.54952,389.17102 793.62142,390.41775 C 792.54892,390.75815 790.32122,390.33847 788.67102,389.48514 C 787.02092,388.6318 785.46822,387.93361 785.22082,387.93361 C 784.20642,387.93361 788.61252,402.51554 790.34102,404.87883 C 791.36872,406.28396 794.76592,409.1548 797.89052,411.25849 C 806.03092,416.73928 805.34372,419.9415 796.78932,416.39014 C 792.62702,414.66219 780.57142,403.27307 780.57142,401.0689 C 780.57142,399.91243 779.26232,399.76808 773.57142,400.29699 C 767.10579,400.89791 766.57142,400.80076 766.57142,399.02441 C 766.57142,397.83979 767.74102,396.58902 769.61702,395.76743 C 771.93202,394.75358 772.53502,393.95384 772.13068,392.43361 C 771.83811,391.33361 771.59258,389.11767 771.58507,387.5093 L 771.57142,384.58498 L 769.05818,386.94605 C 765.13138,390.63508 764.15543,388.2768 767.1796,382.40668 C 769.63283,377.64482 769.71454,376.94519 769.10368,365.93361 C 768.56389,356.20334 767.29265,348.21039 764.93368,339.71473 C 764.41653,337.85227 758.91096,335.94812 754.0172,335.93919 C 750.15588,335.93214 742.6112,340.66631 739.47418,345.06471 C 737.46507,347.88167 737.08209,349.58044 737.13652,355.43361 C 737.23326,365.83591 742.92642,376.31639 753.02559,384.68361 C 754.51924,385.92111 756.15309,386.93361 756.65637,386.93361 C 757.15965,386.93361 757.57142,387.59278 757.57142,388.39843 C 757.57142,390.29188 753.89819,392.25233 751.51713,391.62967 C 749.20712,391.02558 748.63306,392.56257 749.72534,396.42701 C 751.46517,402.58244 750.7377,409.50015 747.89379,413.84387 C 746.42109,416.09323 744.69953,417.93361 744.0681,417.93361 C 743.43667,417.93361 741.86317,419.05861 740.57142,420.43361 C 739.27967,421.80861 737.14968,422.93361 735.83809,422.93361 C 734.5265,422.93361 733.66504,423.27607 733.92373,423.69464 C 734.59096,424.77424 732.57123,427.14122 729.07142,429.3812 C 725.14164,431.89636 715.57142,440.959 715.57142,442.16519 C 715.57142,444.20387 708.76171,452.82927 701.11439,460.47693 C 696.69075,464.90076 691.01475,470.86326 688.50103,473.72693 C 685.98732,476.59061 683.39982,478.93361 682.75103,478.93361 C 681.29486,478.93361 681.21246,475.47285 682.6066,472.86787 C 683.42111,471.34595 683.31452,470.93361 682.1066,470.93361 C 681.26225,470.93361 680.57142,470.48361 680.57142,469.93361 C 680.57142,469.38361 681.41073,468.93361 682.43656,468.93361 C 684.6084,468.93361 689.57142,465.29211 689.57142,463.69858 C 689.57142,463.09915 691.03392,460.32906 692.82142,457.54283 C 695.72657,453.01447 696.05366,451.77195 695.90403,445.83269 C 695.71549,438.34912 692.85359,430.48678 689.00049,426.86698 C 687.02348,425.00967 686.18039,424.79074 684.30156,425.6468 C 681.56093,426.89551 672.7361,440.83039 671.86589,445.2834 C 671.5273,447.01601 670.58055,449.46934 669.76201,450.73523 C 668.52943,452.64145 668.38959,455.64779 668.94801,468.23523 C 669.63585,483.73988 669.46197,485.49197 665.50457,502.93361 C 662.6644,515.45122 662.02746,533.3834 664.0953,542.60935 C 666.48371,553.26551 670.48081,568.61876 673.29171,577.93361 C 678.97752,596.77545 682.27036,613.21405 683.10697,626.93361 C 683.42559,632.15861 685.03214,645.88361 686.67708,657.43361 C 688.32202,668.98361 689.91633,680.68361 690.21998,683.43361 C 690.52363,686.18361 691.17692,689.19153 691.67174,690.11787 C 692.16657,691.04421 692.57142,692.95873 692.57142,694.37235 C 692.57142,695.78598 693.63793,701.10306 694.94144,706.1881 C 699.89964,725.53017 701.64884,734.01252 702.04047,740.61316 C 702.55855,749.3452 703.98842,759.71532 706.49693,772.93361 C 710.16467,792.26031 711.29951,796.38576 715.34835,805.11085 C 718.75152,812.44457 720.71565,815.10781 728.03385,822.31158 C 734.53998,828.71599 738.48914,831.68775 743.91839,834.2648 C 756.2071,840.09776 771.00378,842.13586 784.27902,839.82408 z M 97.071428,748.27949 C 105.51091,746.14092 120.25799,740.32532 123.29076,737.93974 C 124.69348,736.83637 126.29954,735.93361 126.8598,735.93361 C 127.42005,735.93361 130.39687,734.75507 133.47494,733.31463 C 136.55301,731.8742 141.99643,729.32721 145.57143,727.65466 C 149.14643,725.98211 152.99644,723.7894 154.12701,722.78197 C 156.69369,720.49484 167.00708,715.4432 175.57142,712.2782 C 179.14642,710.95704 182.97142,709.49506 184.07142,709.02936 C 189.42103,706.76453 191.77286,706.01431 199.6104,704.07257 C 204.26396,702.91966 216.39642,700.17943 226.57142,697.98317 C 236.74642,695.78691 248.22142,693.0723 252.07142,691.9507 C 255.92142,690.82909 270.77142,686.96854 285.07142,683.37169 C 299.37142,679.77484 313.99642,675.9775 317.57142,674.93316 C 324.62757,672.87191 331.76453,671.51154 346.54205,669.41112 C 360.7392,667.39319 379.86605,663.01198 383.80785,660.87499 C 384.76289,660.35723 386.11289,659.93141 386.80785,659.92873 C 389.64255,659.91777 402.45713,652.39902 408.07035,647.4533 C 417.75267,638.92234 419.82565,636.85451 419.26131,636.29017 C 418.96834,635.9972 417.3488,636.77766 415.66233,638.02452 C 413.97586,639.27138 412.32042,640.01595 411.98358,639.67911 C 411.00412,638.69964 412.06667,637.61368 418.0086,633.52132 C 423.23983,629.91843 424.22192,629.62489 433.33471,628.94041 C 449.63174,627.71631 456.4323,623.0181 462.48887,608.79908 C 466.54207,599.28338 466.3559,596.66804 461.57031,595.89495 C 459.6447,595.58387 455.64314,594.00893 452.67796,592.39508 C 447.9763,589.83612 446.24968,589.46009 439.17907,589.45524 C 432.06363,589.45035 430.62343,589.76622 427.41079,592.03629 C 422.6925,595.37026 412.07766,599.34185 410.00797,598.54764 C 407.27563,597.49914 409.03062,595.49593 413.3236,594.76306 C 417.84265,593.9916 423.57142,591.35342 423.57142,590.04379 C 423.57142,589.02657 430.729,586.33777 435.63269,585.51287 C 440.8767,584.63073 448.74601,586.44663 454.23889,589.80639 C 460.46361,593.61378 467.29438,594.64511 470.07183,592.1969 C 473.61914,589.07008 475.71779,584.88754 478.11946,576.15826 C 480.9779,565.76875 480.49175,564.32538 473.81882,563.38969 C 471.20775,563.02356 466.70722,561.59253 463.81765,560.20961 C 458.83825,557.82653 458.00772,557.73313 447.91408,558.42111 C 436.41067,559.20519 429.02895,561.2643 421.70377,565.73243 C 416.75395,568.75166 409.32245,571.94347 407.30118,571.9183 C 406.62481,571.90988 405.42536,571.49417 404.63572,570.99451 C 402.20722,569.45782 405.24758,566.93361 409.52699,566.93361 C 411.88069,566.93361 415.95,565.52594 420.65455,563.08433 C 428.24541,559.14476 430.95221,558.30394 445.33193,555.41877 C 453.97457,553.6847 460.34377,554.0329 464.16182,556.44819 C 467.03522,558.26589 474.30934,560.13361 478.51526,560.13361 C 481.99394,560.13361 482.67099,559.60141 487.8457,552.79926 C 490.53432,549.26508 491.85175,543.07865 491.27749,536.6841 C 490.78325,531.18054 490.88382,530.86214 493.62863,529.24075 C 499.48963,525.77857 503.5265,509.16074 501.11242,498.43361 L 500.43729,495.43361 L 502.41465,497.68361 C 505.07632,500.71228 506.24105,500.52346 508.58307,496.68361 C 513.04346,489.37059 514.85648,481.30044 514.35917,470.97292 C 513.82886,459.95999 512.55697,456.96137 506.60725,452.69698 L 502.78907,449.96035 L 495.93025,453.0127 C 492.15789,454.69149 487.20858,456.91443 484.93177,457.95258 C 482.65496,458.99072 479.61614,460.13527 478.17882,460.49601 C 475.14694,461.25696 470.84653,465.98929 469.95349,469.54747 C 469.61394,470.90032 469.60924,473.3727 469.94303,475.04165 C 470.44651,477.55905 470.25356,478.01978 468.81067,477.7455 C 466.10044,477.2303 465.93475,468.39542 468.5557,464.15003 C 469.67064,462.34406 471.25529,460.65656 472.07714,460.40003 C 472.899,460.1435 474.31083,459.69802 475.21455,459.41007 C 476.11827,459.12213 476.65214,458.681 476.40093,458.42979 C 476.14973,458.17858 473.04782,458.66045 469.50781,459.50062 C 456.88715,462.49591 454.98947,462.85138 448.33194,463.46717 C 444.62523,463.81003 441.33617,464.50523 441.02292,465.01208 C 440.70968,465.51892 439.59975,465.93361 438.55641,465.93361 C 437.51307,465.93361 434.40256,467.26431 431.64416,468.89072 C 423.2778,473.8237 415.75896,477.06882 409.25442,478.5541 C 401.87733,480.23861 397.57142,481.87454 397.57142,482.99278 C 397.57142,483.44187 396.78392,483.76704 395.82142,483.71538 C 394.85892,483.66372 390.47142,484.3392 386.07142,485.21646 C 373.03575,487.81546 363.70064,488.58714 335.07142,489.43236 C 307.67721,490.24112 276.10679,491.83015 266.07142,492.90534 C 241.52638,495.53508 226.17192,496.19608 217.61374,494.99141 C 187.5039,490.75307 174.32816,488.65214 167.18537,486.95035 C 162.7227,485.88711 152.32143,483.62458 144.07143,481.92251 C 126.69033,478.33658 124.27171,477.50032 113.25218,471.26644 C 89.291748,457.71172 71.210548,442.71001 54.489899,422.51221 C 53.159739,420.90544 51.353219,418.83723 50.475419,417.91619 C 49.597609,416.99516 47.438489,414.14729 45.677369,411.5876 C 43.916258,409.0279 42.135548,406.93361 41.720248,406.93361 C 41.304938,406.93361 39.029578,404.18898 36.663888,400.83444 C 34.298198,397.47989 31.465558,393.99239 30.369128,393.08444 C 29.272688,392.17648 26.057168,388.14076 23.223518,384.11616 C 20.389868,380.09156 17.167418,375.59156 16.062518,374.11616 C 14.957618,372.64076 11.373478,367.83361 8.0977683,363.43361 C 4.8220483,359.03361 0.55105826,353.5937 -1.3933217,351.34492 C -3.3377117,349.09613 -6.3986617,345.27113 -8.1954421,342.84492 C -9.9922221,340.4187 -15.125342,333.48361 -19.602372,327.43361 C -24.079402,321.38361 -30.034302,313.68821 -32.835492,310.33272 C -35.636692,306.97723 -38.603572,303.20981 -39.428572,301.96067 C -42.738672,296.94881 -55.530406,280.09399 -56.863896,278.98729 C -57.842516,278.17511 -66.748236,277.63093 -85.335606,277.24755 L -112.38327,276.68966 L -115.65592,280.40721 C -119.53377,284.81222 -125.19551,287.93361 -129.3077,287.93361 C -133.90806,287.93361 -138.17792,290.96561 -140.5738,295.93361 C -141.7674,298.40861 -143.12302,301.215 -143.58628,302.17004 C -144.04955,303.12508 -144.42858,305.00828 -144.42858,306.35494 C -144.42858,310.15176 -145.93037,313.05731 -150.34247,317.79669 L -154.40426,322.15976 L -154.73603,386.60553 L -155.06781,451.05129 L -150.99819,454.23501 C -148.75991,455.98606 -146.77858,457.75958 -146.59525,458.17617 C -146.41191,458.59276 -145.70285,458.93361 -145.01956,458.93361 C -144.33627,458.93361 -142.72032,460.05861 -141.42858,461.43361 C -140.13684,462.80861 -138.65551,463.93361 -138.13674,463.93361 C -137.61798,463.93361 -133.6993,467.08361 -129.42858,470.93361 C -125.15786,474.78361 -121.33229,477.93361 -120.92731,477.93361 C -119.03697,477.93361 -101.92089,492.67471 -77.675846,515.18361 C -71.899736,520.54611 -66.556136,524.93361 -65.801196,524.93361 C -65.046256,524.93361 -64.428576,525.37305 -64.428576,525.91015 C -64.428576,526.44725 -60.677606,530.60975 -56.093086,535.16015 C -51.508576,539.71055 -46.905096,544.78361 -45.863136,546.43361 C -43.992402,549.39604 -31.646642,564.96474 -30.399922,565.93361 C -30.046052,566.20861 -28.165232,568.93997 -26.220312,572.00329 C -24.275402,575.06662 -21.332022,579.11662 -19.679472,581.00329 C -12.244252,589.49191 10.449338,632.97391 16.529478,650.38136 C 18.248388,655.30263 20.103778,659.87013 20.652568,660.53138 C 21.835228,661.9564 23.099368,669.54778 24.538878,683.86937 C 25.919108,697.60124 29.984758,714.40234 34.462228,724.87711 C 40.374278,738.70798 47.838839,744.50622 65.491318,748.97953 C 74.158398,751.17586 86.742258,750.89691 97.071428,748.27949 z M 63.670109,639.40072 C 58.872169,637.28789 60.506759,636.47872 66.613438,637.94369 C 69.445918,638.62319 73.781498,638.90253 76.248058,638.56445 C 79.584078,638.1072 80.627608,638.26785 80.322368,639.19169 C 79.701718,641.07015 67.800398,641.21955 63.670109,639.40072 z M 61.706289,634.21279 C 58.495709,633.60403 53.300089,630.61959 52.790749,629.09158 C 52.496479,628.20876 53.204479,628.0163 55.223559,628.43025 C 56.995259,628.79349 55.710839,627.77078 51.824609,625.72387 C 44.610689,621.92423 37.777868,613.93361 41.742688,613.93361 C 42.386878,613.93361 43.849378,614.69395 44.992689,615.62326 C 46.135999,616.55257 43.839388,614.19007 39.889108,610.37326 C 31.618558,602.38214 19.571428,588.50878 19.571428,586.97561 C 19.571428,584.16635 23.179278,587.12551 35.571428,600.09885 C 42.996428,607.87207 51.621159,615.89534 54.737489,617.92834 C 62.140889,622.75808 70.766738,624.69368 77.726958,623.08707 C 83.939688,621.653 96.050588,621.58449 98.637168,622.96879 C 104.65438,626.18911 97.966238,627.17118 70.276698,627.13318 C 68.189598,627.13032 65.264598,626.8274 63.776699,626.46003 C 61.541739,625.90821 61.297589,626.0217 62.372299,627.11285 C 63.227899,627.98154 66.227548,628.4195 71.136038,628.3924 C 75.882928,628.36618 78.471198,628.73011 78.247998,629.3924 C 77.844518,630.58957 64.368998,630.8183 60.571429,629.69243 C 59.196429,629.28478 59.871429,629.83548 62.071429,630.91621 C 64.301038,632.01148 68.173768,632.89277 70.821428,632.90739 C 73.433928,632.92181 75.571428,633.38361 75.571428,633.93361 C 75.571428,634.91938 66.406108,635.10393 61.706289,634.21279 z M 57.197309,623.6248 C 56.166539,622.96965 53.784059,621.42111 51.902899,620.18361 C 46.809439,616.83293 46.696729,617.46203 51.680699,621.4239 C 54.095599,623.34357 56.746429,624.8921 57.571429,624.8651 C 58.712149,624.82776 58.622549,624.53068 57.197309,623.6248 z M 450.32142,606.36164 C 448.80892,605.54109 447.57142,604.44937 447.57142,603.9356 C 447.57142,601.84425 451.03214,595.93361 452.25663,595.93361 C 454.05454,595.93361 453.90848,597.90368 451.95014,600.06762 C 449.29928,602.99679 450.90369,604.93361 455.98102,604.93361 C 460.57626,604.93361 462.78365,606.25446 459.98389,607.32883 C 457.33709,608.3445 453.21603,607.93199 450.32142,606.36164 z M 463.26608,577.28539 C 461.59108,576.80317 461.22582,574.69096 462.84642,574.85861 C 463.24517,574.89986 466.58642,574.93361 470.27142,574.93361 C 475.29053,574.93361 476.68513,575.2199 475.83028,576.07475 C 474.59056,577.31447 466.18155,578.12473 463.26608,577.28539 z M 461.67458,570.51042 C 460.69909,568.10476 460.75785,567.3186 462.00651,566.06994 C 464.21251,563.86395 464.93534,565.27646 463.82789,569.62916 L 462.85993,573.43361 L 461.67458,570.51042 z M 479.36718,544.39603 C 479.12498,544.15384 477.58901,543.80922 475.9539,543.63022 C 471.12761,543.10186 470.55981,542.321 471.23466,537.1401 C 471.57184,534.55153 472.28654,531.87606 472.82288,531.19462 C 474.67433,528.84225 475.82546,531.1408 475.24604,536.03314 L 474.6741,540.86225 L 478.3138,541.54506 C 481.60296,542.16211 482.97466,541.88856 488.82142,539.44963 C 491.39012,538.37812 490.9946,540.62397 488.32142,542.28871 C 485.94486,543.76873 480.11249,545.14134 479.36718,544.39603 z M 407.57142,538.55605 C 407.57142,536.52029 409.64055,535.15284 414.30763,534.10422 C 416.59423,533.59045 421.23296,531.32178 424.61591,529.06274 C 427.99886,526.80369 432.63528,524.44537 434.91907,523.82202 C 437.20286,523.19867 441.66071,521.84377 444.8254,520.81113 C 447.99009,519.7785 452.51727,518.93361 454.88579,518.93361 C 459.27006,518.93361 469.60864,522.44542 473.73687,525.33694 C 475.17674,526.34546 478.11449,526.93361 481.71214,526.93361 C 488.4108,526.93361 490.57142,527.5955 490.57142,529.64759 C 490.57142,530.69167 490.03951,530.92245 488.82142,530.40688 C 487.85892,529.9995 484.60081,529.4906 481.58118,529.27599 C 478.26837,529.04055 472.31937,527.34627 466.58118,525.00397 C 457.97512,521.49102 456.59627,521.20126 452.07142,521.95476 C 449.32142,522.41271 445.10234,523.49529 442.69569,524.3605 C 440.28904,525.22571 437.32615,525.93361 436.11148,525.93361 C 434.89681,525.93361 431.33096,527.73532 428.18737,529.93741 C 422.60412,533.84849 410.68843,539.93361 408.61312,539.93361 C 408.04019,539.93361 407.57142,539.31371 407.57142,538.55605 z M 416.57142,511.12167 C 416.57142,509.97001 422.22311,505.93361 423.83565,505.93361 C 424.57551,505.93361 428.02006,503.93435 431.49019,501.49081 C 434.96033,499.04727 440.3357,496.31065 443.43547,495.40943 C 446.53524,494.50821 452.59081,492.63616 456.89228,491.24931 C 465.69024,488.41275 470.59956,488.60364 477.19213,492.03866 C 479.32574,493.15036 483.54642,494.27992 486.57142,494.54881 C 495.35847,495.32986 498.66185,495.97828 498.14168,496.81993 C 497.87475,497.25183 495.24478,497.40521 492.29729,497.16078 L 486.93823,496.71637 L 487.00482,502.86248 C 487.06506,508.4216 487.29208,509.06457 489.38182,509.59467 C 490.65254,509.91701 493.48935,509.9397 495.68585,509.64509 C 498.46757,509.27198 499.56324,509.46208 499.29645,510.27152 C 498.7882,511.8135 488.1866,512.33321 485.58979,510.94344 C 483.81388,509.993 483.59331,509.03598 483.84993,503.39432 C 484.10903,497.69816 483.92772,496.93361 482.31778,496.93361 C 481.31346,496.93361 478.81161,496.07647 476.75811,495.02885 C 470.64876,491.91209 464.78486,491.47942 459.48421,493.75429 C 456.96124,494.83707 451.48569,496.65885 447.31633,497.8027 C 440.40911,499.69767 436.69325,501.55163 429.58414,506.64988 C 427.21099,508.35176 418.90267,511.93108 417.32142,511.9328 C 416.90892,511.93324 416.57142,511.56824 416.57142,511.12167 z M 472.82142,483.96054 C 470.48392,482.89951 468.57142,481.51125 468.57142,480.87551 C 468.57142,480.1662 469.24752,479.99867 470.32142,480.44187 C 478.05877,483.63515 486.9629,483.07817 496.45974,478.80684 C 503.88977,475.46508 503.57142,475.53148 503.57142,477.32348 C 503.57142,478.83527 496.67549,482.43443 489.66249,484.58291 C 483.56823,486.44992 477.83922,486.23821 472.82142,483.96054 z M 486.57142,480.50623 C 486.57142,479.60772 497.76389,474.83339 498.88843,475.25221 C 499.53907,475.49454 497.59642,476.86759 494.57142,478.30344 C 489.45418,480.73239 486.57142,481.52616 486.57142,480.50623 z M 487.57142,476.45393 C 487.57142,475.52798 495.73368,471.82115 496.89612,472.21919 C 497.54254,472.44054 496.0744,473.59183 493.63359,474.77763 C 489.22931,476.91731 487.57142,477.37575 487.57142,476.45393 z M 500.77709,472.18361 C 498.68907,466.64626 498.52538,462.48817 500.18742,457.20414 C 501.22452,453.90693 502.4097,451.93361 503.35291,451.93361 C 504.61059,451.93361 504.75491,453.05304 504.22313,458.68361 C 503.87251,462.39611 503.58244,467.57111 503.57853,470.18361 C 503.5706,475.48339 502.34997,476.35482 500.77709,472.18361 z M 706.49812,448.68361 C 708.21281,445.79611 710.97524,441.24059 712.63686,438.56022 C 714.29848,435.87986 715.49378,433.52264 715.29309,433.32195 C 715.0924,433.12126 713.4105,434.07678 711.55553,435.44533 C 708.31401,437.83685 705.54244,438.5713 704.33095,437.35981 C 704.01536,437.04421 705.9828,434.45671 708.70305,431.60981 C 714.43914,425.60662 715.07142,423.9013 715.07142,414.43361 C 715.07142,407.97596 712.16194,397.6014 709.50037,394.56849 C 708.16506,393.04687 700.07315,396.93166 697.27602,400.43719 C 689.54576,410.12521 686.18183,422.1442 691.68984,420.39602 C 693.11456,419.94384 693.57142,420.29695 693.57142,421.85029 C 693.57142,422.97859 694.92142,426.68866 696.57142,430.09489 C 698.22142,433.50112 699.57419,437.44579 699.57758,438.86082 C 699.58097,440.27586 700.25597,442.72255 701.07758,444.29792 C 701.89919,445.87329 702.57142,448.68579 702.57142,450.54792 C 702.57142,452.41005 702.75346,453.93361 702.97596,453.93361 C 703.19846,453.93361 704.78343,451.57111 706.49812,448.68361 z M 734.78919,420.84402 C 736.83396,418.85816 739.02088,415.92843 739.64902,414.33349 C 741.06313,410.74283 741.74205,402.71012 740.57021,403.43436 C 739.25245,404.24878 738.27368,402.0051 739.35113,400.63981 C 739.87468,399.9764 740.60856,398.08361 740.98198,396.43361 C 741.35541,394.78361 742.06898,391.63361 742.5677,389.43361 C 743.38604,385.82367 743.06768,384.60473 739.30305,376.93361 C 734.72169,367.59828 733.311,366.01281 729.54393,365.96541 C 724.41935,365.90093 716.32863,373.29385 713.62987,380.50693 C 711.29439,386.74907 711.72071,388.81408 716.75918,395.66466 C 718.87521,398.54174 721.05404,402.07279 721.60101,403.51143 C 722.14798,404.95007 723.44542,406.34941 724.48422,406.62106 C 727.328,407.36472 727.80332,411.74365 725.18952,413.11872 C 722.07627,414.75655 721.84017,415.51179 722.9483,420.28795 C 723.58494,423.03197 724.71025,424.97746 726.01289,425.58619 C 728.36431,426.68501 729.28984,426.18491 734.78919,420.84402 z M 779.53602,390.18361 C 779.51652,389.22111 778.81042,387.30861 777.96692,385.93361 C 777.12342,384.55861 776.68932,384.25791 777.00232,385.2654 C 777.31532,386.27288 777.57142,388.18538 777.57142,389.5154 C 777.57142,390.84541 778.02142,391.93361 778.57142,391.93361 C 779.12142,391.93361 779.55552,391.14611 779.53602,390.18361 z" id="path3938" style="fill:#000000"/>
  </g>
</svg>
